<svg xmlns="http://www.w3.org/2000/svg" xmlns:xlink="http://www.w3.org/1999/xlink" width="704" height="1013pt" viewBox="0 0 528.44 1013"><g id="graph0" class="graph" transform="scale(1 1) rotate(0) translate(4 1009)"><title>G</title><polygon fill="#fff" stroke="transparent" points="-4 4 -4 -1009 524.436 -1009 524.436 4 -4 4"/><g id="clust1" class="cluster"><title>cluster_Global</title><path fill="none" stroke="silver" d="M241.5954,-8C241.5954,-8 500.4362,-8 500.4362,-8 506.4362,-8 512.4362,-14 512.4362,-20 512.4362,-20 512.4362,-985 512.4362,-985 512.4362,-991 506.4362,-997 500.4362,-997 500.4362,-997 241.5954,-997 241.5954,-997 235.5954,-997 229.5954,-991 229.5954,-985 229.5954,-985 229.5954,-20 229.5954,-20 229.5954,-14 235.5954,-8 241.5954,-8"/><text x="371.016" y="-984.2" fill="silver" font-family="Times,serif" font-size="11" text-anchor="middle">Global</text></g><g id="node1" class="node"><title>\\Object_Sync_Sf_Activate</title><polygon fill="none" stroke="#000" points="454.841 -970 287.191 -970 287.191 -934 454.841 -934 454.841 -970"/><text x="371.016" y="-948.7" fill="#000" font-family="Courier,monospace" font-size="11" text-anchor="middle">Object_Sync_Sf_Activate</text></g><g id="node2" class="node"><title>\\Object_Sync_Sf_Salesforce_Select_Query</title><polygon fill="none" stroke="#000" points="504.357 -916 237.675 -916 237.675 -880 504.357 -880 504.357 -916"/><text x="371.016" y="-894.7" fill="#000" font-family="Courier,monospace" font-size="11" text-anchor="middle">Object_Sync_Sf_Salesforce_Select_Query</text></g><g id="node3" class="node"><title>\\Object_Sync_Sf_Admin_Notice</title><polygon fill="none" stroke="#000" points="468.245 -862 273.787 -862 273.787 -826 468.245 -826 468.245 -862"/><text x="371.016" y="-840.7" fill="#000" font-family="Courier,monospace" font-size="11" text-anchor="middle">Object_Sync_Sf_Admin_Notice</text></g><g id="node4" class="node"><title>\\Object_Sync_Salesforce</title><polygon fill="none" stroke="#000" points="451.74 -808 290.292 -808 290.292 -772 451.74 -772 451.74 -808"/><text x="371.016" y="-786.7" fill="#000" font-family="Courier,monospace" font-size="11" text-anchor="middle">Object_Sync_Salesforce</text></g><g id="node5" class="node"><title>\\Object_Sync_Sf_Salesforce_Pull</title><polygon fill="none" stroke="#000" points="478.048 -754 263.984 -754 263.984 -718 478.048 -718 478.048 -754"/><text x="371.016" y="-732.7" fill="#000" font-family="Courier,monospace" font-size="11" text-anchor="middle">Object_Sync_Sf_Salesforce_Pull</text></g><g id="node6" class="node"><title>\\Object_Sync_Sf_Mapping</title><polygon fill="none" stroke="#000" points="451.74 -700 290.292 -700 290.292 -664 451.74 -664 451.74 -700"/><text x="371.016" y="-678.7" fill="#000" font-family="Courier,monospace" font-size="11" text-anchor="middle">Object_Sync_Sf_Mapping</text></g><g id="node7" class="node"><title>\\Object_Sync_Sf_Rest</title><polygon fill="none" stroke="#000" points="441.937 -646 300.095 -646 300.095 -610 441.937 -610 441.937 -646"/><text x="371.016" y="-624.7" fill="#000" font-family="Courier,monospace" font-size="11" text-anchor="middle">Object_Sync_Sf_Rest</text></g><g id="node8" class="node"><title>\\Object_Sync_Sf_Salesforce</title><polygon fill="none" stroke="#000" points="461.543 -592 280.489 -592 280.489 -556 461.543 -556 461.543 -592"/><text x="371.016" y="-570.7" fill="#000" font-family="Courier,monospace" font-size="11" text-anchor="middle">Object_Sync_Sf_Salesforce</text></g><g id="node9" class="node"><title>\\Object_Sync_Sf_Exception</title><polygon fill="none" stroke="#000" points="458.442 -538 283.589 -538 283.589 -502 458.442 -502 458.442 -538"/><text x="371.016" y="-516.7" fill="#000" font-family="Courier,monospace" font-size="11" text-anchor="middle">Object_Sync_Sf_Exception</text></g><g id="node19" class="node"><title>\\Exception</title><ellipse cx="82.798" cy="-385" fill="none" stroke="#000" rx="48.334" ry="18"/><text x="82.798" y="-380.8" fill="silver" font-family="Times,serif" font-size="14" text-anchor="middle">\Exception</text></g><g id="edge1" class="edge"><title>\\Object_Sync_Sf_Exception-&gt;\\Exception</title><path fill="none" stroke="#000" d="M283.5464,-509.6019C265.2607,-505.7022 246.4337,-500.3479 229.5954,-493 182.0868,-472.2682 135.2652,-433.8408 107.708,-408.857"/><polygon fill="none" stroke="#000" points="109.857 -406.078 100.128 -401.881 105.116 -411.228 109.857 -406.078"/></g><g id="node10" class="node"><title>\\Object_Sync_Sf_Deactivate</title><polygon fill="none" stroke="#000" points="461.543 -484 280.489 -484 280.489 -448 461.543 -448 461.543 -484"/><text x="371.016" y="-462.7" fill="#000" font-family="Courier,monospace" font-size="11" text-anchor="middle">Object_Sync_Sf_Deactivate</text></g><g id="node11" class="node"><title>\\Object_Sync_Sf_Salesforce_Push</title><polygon fill="none" stroke="#000" points="478.048 -430 263.984 -430 263.984 -394 478.048 -394 478.048 -430"/><text x="371.016" y="-408.7" fill="#000" font-family="Courier,monospace" font-size="11" text-anchor="middle">Object_Sync_Sf_Salesforce_Push</text></g><g id="node12" class="node"><title>\\Object_Sync_Sf_Queue</title><polygon fill="none" stroke="#000" points="445.037 -376 296.994 -376 296.994 -340 445.037 -340 445.037 -376"/><text x="371.016" y="-354.7" fill="#000" font-family="Courier,monospace" font-size="11" text-anchor="middle">Object_Sync_Sf_Queue</text></g><g id="node13" class="node"><title>\\Object_Sync_Sf_Admin</title><polygon fill="none" stroke="#000" points="445.037 -322 296.994 -322 296.994 -286 445.037 -286 445.037 -322"/><text x="371.016" y="-300.7" fill="#000" font-family="Courier,monospace" font-size="11" text-anchor="middle">Object_Sync_Sf_Admin</text></g><g id="node14" class="node"><title>\\Object_Sync_Sf_Logging</title><polygon fill="none" stroke="#000" points="451.74 -214 290.292 -214 290.292 -178 451.74 -178 451.74 -214"/><text x="371.016" y="-192.7" fill="#000" font-family="Courier,monospace" font-size="11" text-anchor="middle">Object_Sync_Sf_Logging</text></g><g id="node20" class="node"><title>\\WP_Logging</title><ellipse cx="82.798" cy="-196" fill="none" stroke="#000" rx="60.438" ry="18"/><text x="82.798" y="-191.8" fill="silver" font-family="Times,serif" font-size="14" text-anchor="middle">\WP_Logging</text></g><g id="edge2" class="edge"><title>\\Object_Sync_Sf_Logging-&gt;\\WP_Logging</title><path fill="none" stroke="#000" d="M290.3477,-196C247.2702,-196 194.7436,-196 153.3109,-196"/><polygon fill="none" stroke="#000" points="153.3 -192.5 143.3 -196 153.3 -199.5 153.3 -192.5"/></g><g id="node15" class="node"><title>\\Object_Sync_Sf_Salesforce_Soap_Partner</title><polygon fill="none" stroke="#000" points="504.357 -106 237.675 -106 237.675 -70 504.357 -70 504.357 -106"/><text x="371.016" y="-84.7" fill="#000" font-family="Courier,monospace" font-size="11" text-anchor="middle">Object_Sync_Sf_Salesforce_Soap_Partner</text></g><g id="node21" class="node"><title>\\SforcePartnerClient</title><ellipse cx="82.798" cy="-88" fill="none" stroke="#000" rx="82.596" ry="18"/><text x="82.798" y="-83.8" fill="silver" font-family="Times,serif" font-size="14" text-anchor="middle">\SforcePartnerClient</text></g><g id="edge3" class="edge"><title>\\Object_Sync_Sf_Salesforce_Soap_Partner-&gt;\\SforcePartnerClient</title><path fill="none" stroke="#000" d="M237.4532,-88C216.6379,-88 195.5275,-88 175.8717,-88"/><polygon fill="none" stroke="#000" points="175.735 -84.5 165.735 -88 175.735 -91.5 175.735 -84.5"/></g><g id="node16" class="node"><title>\\Object_Sync_Sf_WordPress</title><polygon fill="none" stroke="#000" points="458.442 -160 283.589 -160 283.589 -124 458.442 -124 458.442 -160"/><text x="371.016" y="-138.7" fill="#000" font-family="Courier,monospace" font-size="11" text-anchor="middle">Object_Sync_Sf_WordPress</text></g><g id="node17" class="node"><title>\\WordpressException</title><polygon fill="none" stroke="#000" points="438.335 -268 303.696 -268 303.696 -232 438.335 -232 438.335 -268"/><text x="371.016" y="-246.7" fill="#000" font-family="Courier,monospace" font-size="11" text-anchor="middle">WordpressException</text></g><g id="edge4" class="edge"><title>\\WordpressException-&gt;\\Exception</title><path fill="none" stroke="#000" d="M303.3535,-256.6626C279.3612,-260.6331 252.6193,-266.9528 229.5954,-277 182.0868,-297.7318 135.2652,-336.1592 107.708,-361.143"/><polygon fill="none" stroke="#000" points="105.116 -358.772 100.128 -368.119 109.857 -363.922 105.116 -358.772"/></g><g id="node18" class="node"><title>\\Object_Sync_Sf_WordPress_Transient</title><polygon fill="none" stroke="#000" points="491.453 -52 250.579 -52 250.579 -16 491.453 -16 491.453 -52"/><text x="371.016" y="-30.7" fill="#000" font-family="Courier,monospace" font-size="11" text-anchor="middle">Object_Sync_Sf_WordPress_Transient</text></g></g></svg>